/* XPM */
static char *_8f8b94529694782da61a3792fcd9465To4oQfLcCVBSokO9[] = {
/* columns rows colors chars-per-pixel */
"32 32 15 1 ",
"  c None",
". c #3F1911",
"X c #292323",
"o c #4D162E",
"O c #44343B",
"+ c #463D3D",
"@ c #6A353B",
"# c #605357",
"$ c #776B73",
"% c #70727B",
"& c #B36152",
"* c #E4A368",
"= c #BE22AB",
"- c #AEB4BA",
"; c #E4E7E7",
/* pixels */
"                                ",
"                                ",
"                                ",
"             oooo               ",
"            oooo=o              ",
"            oo@&@=              ",
"            oo***=              ",
"             o***o              ",
"             o & o      ###     ",
"           ;%$$$##    $$####    ",
"          %%-XX$$###$$##        ",
"          --++++++X#####$$      ",
"         ++XXX+XX+XXXOOO$$$$    ",
"         ++ XXXX+X XX OOOO$$    ",
"        oo   XX++   XX  OOOOOOO ",
"        oo   -;;-   XX    OOOO  ",
"        oo   +++++  XX          ",
"    ;   oo   +++++  XX          ",
"     ;--XooX&&&++X&  X          ",
"      ;;XooX*&&XX@& XX          ",
"           ***& @@&             ",
"           ***&  @&&            ",
"          ***&   @&&            ",
"          ***    @&&            ",
"          o*      .&            ",
"         oo.      ..            ",
"         o.       ..            ",
"        oo.        ..           ",
"        o.         ..           ",
"       oo.         ..           ",
"      ...          ...          ",
"                                "
};
